<svg width="542" height="1387" viewBox="0 0 542 1387" fill="none" xmlns="http://www.w3.org/2000/svg">
<g clip-path="url(#clip0_111_4)">
<path d="M210.811 499.636C212.146 490.005 209.312 480.258 203.026 472.837L180.714 446.247L462.635 186.777C468.498 181.924 472.263 174.999 473.158 167.445C474.049 159.886 472.007 152.269 467.439 146.178L418.908 88.3413C413.702 82.785 406.556 79.4511 398.957 79.0159C391.362 78.5856 383.889 81.0909 378.092 86.0221L73.6083 318.603L51.2965 292.013C45.0801 284.535 35.9736 280.051 26.257 279.693C17.2962 279.33 8.61478 282.857 2.44871 289.361L-188.598 490.37C-194.097 496.365 -197.188 504.172 -197.287 512.306C-197.392 520.443 -194.49 528.326 -189.149 534.463L-77.495 667.527C-72.3791 673.853 -65.1197 678.079 -57.0877 679.389C-49.0604 680.703 -40.8349 679.015 -33.9768 674.641L197.153 521.401C204.63 516.458 209.611 508.521 210.809 499.634L210.811 499.636ZM381.988 91.1174C391.308 82.9791 405.375 83.568 413.998 92.4581L462.528 150.295C469.786 160.33 467.923 174.285 458.29 182.051L176.584 441.318L77.739 323.519L381.988 91.1174ZM-22.0803 519.634L-20.9514 520.979L-74.3948 591.806L-82.9158 581.651L-22.0803 519.634ZM-85.5076 578.563L-93.4848 569.056L-26.7158 514.109L-24.6762 516.54L-85.5076 578.563ZM-16.1434 516.075L-29.3457 500.341L115.647 378.677L128.85 394.411L-16.1434 516.075ZM-31.2565 508.698L-29.2911 511.04L-96.06 565.987L-102.966 557.757L-31.2565 508.698ZM-105.554 554.673L-114.042 544.557L-35.0101 504.225L-33.8481 505.609L-105.554 554.673ZM193.603 516.055L-37.5274 669.294C-43.0723 672.792 -49.7065 674.125 -56.1762 673.043C-62.6447 671.952 -68.4817 668.524 -72.5842 663.405L-184.238 530.342C-188.566 525.413 -190.933 519.064 -190.88 512.509C-190.826 505.945 -188.362 499.643 -183.954 494.79L7.0926 293.781C12.006 288.603 18.9228 285.804 26.0518 286.098C33.9441 286.404 41.3359 290.051 46.3784 296.13L111.782 374.075L-35.5601 497.71L-124.288 542.982L-74.6283 602.164L-14.6323 522.651L132.71 399.016L198.11 476.956C203.22 482.977 205.528 490.89 204.46 498.716C203.511 505.788 199.553 512.113 193.601 516.053L193.603 516.055Z" fill="#EFE8E0" fill-opacity="0.3"/>
</g>
<g clip-path="url(#clip1_111_4)">
<path d="M210.408 833.991C211.744 824.361 208.909 814.614 202.624 807.193L180.312 780.603L462.233 521.132C468.096 516.28 471.861 509.355 472.756 501.801C473.647 494.242 471.604 486.625 467.037 480.533L418.506 422.697C413.3 417.141 406.154 413.807 398.555 413.371C390.96 412.941 383.486 415.446 377.69 420.378L73.2059 652.959L50.8942 626.369C44.6778 618.891 35.5713 614.406 25.8546 614.049C16.8938 613.685 8.21244 617.212 2.04637 623.717L-189 824.726C-194.499 830.721 -197.59 838.528 -197.69 846.661C-197.794 854.799 -194.893 862.682 -189.551 868.818L-77.8973 1001.88C-72.7814 1008.21 -65.522 1012.43 -57.49 1013.74C-49.4627 1015.06 -41.2373 1013.37 -34.3792 1009L196.751 855.757C204.228 850.814 209.209 842.877 210.407 833.989L210.408 833.991ZM381.586 425.473C390.906 417.335 404.973 417.923 413.595 426.814L462.126 484.65C469.384 494.685 467.521 508.64 457.888 516.406L176.182 775.673L77.3366 657.874L381.586 425.473ZM-22.4827 853.989L-21.3537 855.335L-74.7971 926.162L-83.3181 916.007L-22.4827 853.989ZM-85.9099 912.918L-93.8871 903.411L-27.1181 848.465L-25.0785 850.896L-85.9099 912.918ZM-16.5458 850.43L-29.748 834.696L115.245 713.033L128.447 728.767L-16.5458 850.43ZM-31.6588 843.054L-29.6934 845.396L-96.4624 900.342L-103.368 892.112L-31.6588 843.054ZM-105.956 889.028L-114.444 878.913L-35.4125 838.58L-34.2505 839.965L-105.956 889.028ZM193.201 850.41L-37.9298 1003.65C-43.4746 1007.15 -50.1088 1008.48 -56.5785 1007.4C-63.047 1006.31 -68.884 1002.88 -72.9865 997.761L-184.64 864.697C-188.968 859.768 -191.335 853.42 -191.283 846.865C-191.229 840.301 -188.764 833.999 -184.356 829.145L6.69025 628.136C11.6037 622.959 18.5205 620.159 25.6494 620.453C33.5418 620.76 40.9335 624.406 45.9761 630.485L111.38 708.43L-35.9624 832.065L-124.69 877.338L-75.0306 936.519L-15.0346 857.006L132.308 733.371L197.707 811.311C202.818 817.332 205.126 825.245 204.057 833.071C203.109 840.143 199.15 846.469 193.199 850.408L193.201 850.41Z" fill="#EFE8E0" fill-opacity="0.3"/>
</g>
<g clip-path="url(#clip2_111_4)">
<path d="M210.408 1167.99C211.744 1158.36 208.909 1148.61 202.624 1141.19L180.312 1114.6L462.233 855.132C468.096 850.28 471.861 843.355 472.756 835.801C473.647 828.242 471.604 820.625 467.037 814.533L418.506 756.697C413.3 751.141 406.154 747.807 398.555 747.371C390.96 746.941 383.486 749.446 377.69 754.378L73.2059 986.959L50.8942 960.369C44.6778 952.891 35.5713 948.406 25.8546 948.049C16.8938 947.685 8.21244 951.212 2.04637 957.717L-189 1158.73C-194.499 1164.72 -197.59 1172.53 -197.69 1180.66C-197.794 1188.8 -194.893 1196.68 -189.551 1202.82L-77.8973 1335.88C-72.7814 1342.21 -65.522 1346.43 -57.49 1347.74C-49.4627 1349.06 -41.2373 1347.37 -34.3792 1343L196.751 1189.76C204.228 1184.81 209.209 1176.88 210.407 1167.99L210.408 1167.99ZM381.586 759.473C390.906 751.335 404.973 751.923 413.595 760.814L462.126 818.65C469.384 828.685 467.521 842.64 457.888 850.406L176.182 1109.67L77.3366 991.874L381.586 759.473ZM-22.4827 1187.99L-21.3537 1189.33L-74.7971 1260.16L-83.3181 1250.01L-22.4827 1187.99ZM-85.9099 1246.92L-93.8871 1237.41L-27.1181 1182.46L-25.0785 1184.9L-85.9099 1246.92ZM-16.5458 1184.43L-29.748 1168.7L115.245 1047.03L128.447 1062.77L-16.5458 1184.43ZM-31.6588 1177.05L-29.6934 1179.4L-96.4624 1234.34L-103.368 1226.11L-31.6588 1177.05ZM-105.956 1223.03L-114.444 1212.91L-35.4125 1172.58L-34.2505 1173.96L-105.956 1223.03ZM193.201 1184.41L-37.9298 1337.65C-43.4746 1341.15 -50.1088 1342.48 -56.5785 1341.4C-63.047 1340.31 -68.884 1336.88 -72.9865 1331.76L-184.64 1198.7C-188.968 1193.77 -191.335 1187.42 -191.283 1180.86C-191.229 1174.3 -188.764 1168 -184.356 1163.15L6.69025 962.136C11.6037 956.959 18.5205 954.159 25.6494 954.453C33.5418 954.76 40.9335 958.406 45.9761 964.485L111.38 1042.43L-35.9624 1166.07L-124.69 1211.34L-75.0306 1270.52L-15.0346 1191.01L132.308 1067.37L197.707 1145.31C202.818 1151.33 205.126 1159.25 204.057 1167.07C203.109 1174.14 199.15 1180.47 193.199 1184.41L193.201 1184.41Z" fill="#EFE8E0" fill-opacity="0.3"/>
</g>
<defs>
<clipPath id="clip0_111_4">
<rect width="304" height="754" fill="white" transform="translate(346 0.644531) rotate(50)"/>
</clipPath>
<clipPath id="clip1_111_4">
<rect width="304" height="754" fill="white" transform="translate(345.598 335) rotate(50)"/>
</clipPath>
<clipPath id="clip2_111_4">
<rect width="304" height="754" fill="white" transform="translate(345.598 669) rotate(50)"/>
</clipPath>
</defs>
</svg>
