<svg width="1021" height="1091" viewBox="0 0 1021 1091" fill="none" xmlns="http://www.w3.org/2000/svg">
<g clip-path="url(#clip0_111_5)">
<path d="M1339.35 471.695C1308.95 449.34 1275.64 431.25 1240.33 417.928C1220.9 409.576 1200.81 400.934 1182.1 390.815C1075.16 332.97 1006.3 224.925 950.157 128.183L948.26 124.914C933.437 96.5334 914.903 70.2439 893.146 46.7565C873.461 27.3232 841.914 4.73104 803.453 7.44243L801.135 7.60754L799.836 9.53472L799.826 9.54068C781.457 39.173 776.456 75.1904 786.056 108.703C795.569 139.282 809.118 168.447 826.331 195.445L828.218 198.719C884.085 295.621 943.428 409.178 940.245 530.721C939.691 551.981 937.164 573.708 934.717 594.716C928.658 631.958 927.729 669.855 931.961 707.354C943.471 779.593 981.815 838.425 1013.93 881.612C1034.46 909.217 1138.32 1000.46 1166.64 1017.91C1171.2 1021.5 1177.2 1022.7 1182.8 1021.14C1183.28 1020.95 1183.74 1020.72 1184.19 1020.46C1189.86 1016.3 1192.39 1009.09 1190.58 1002.3C1186.57 974.886 1163.86 955.491 1143.83 938.379C1142.05 936.858 1140.28 935.339 1138.53 933.835L1138.52 933.832C1067.74 872.533 1020.63 788.409 1005.34 696.036L1005.37 696.053L1041.35 623.364C1043.11 619.809 1044.85 616.267 1046.58 612.722L1046.58 612.711C1060.72 581.576 1077.82 551.861 1097.63 523.983C1136.17 520.316 1174.96 520.236 1213.5 523.767L1291.66 528.653L1291.67 528.645C1364.8 588.003 1414.73 671.207 1432.68 763.672C1433.12 765.942 1433.56 768.236 1433.98 770.546C1438.83 796.437 1444.32 825.784 1466.08 842.931C1471.37 848.431 1479.76 849.529 1486.29 845.584C1490.44 841.515 1492.38 835.708 1491.53 829.959C1490.49 795.027 1460.38 655.865 1447.41 625.982C1424.19 572.459 1395.02 516.721 1339.34 471.697L1339.35 471.695ZM886.444 53.5453C907.58 76.4591 925.582 102.064 940.004 129.695L940.495 130.532C939.09 130.54 937.697 130.534 936.29 130.551L936.28 130.557C920.96 131.51 905.576 130.164 890.64 126.576C880.464 121.349 872.22 113.005 867.101 102.777L812.806 16.8208C841.027 19.6262 867.233 32.6964 886.444 53.5453ZM1132.28 941.044C1134.04 942.569 1135.82 944.091 1137.63 945.626C1157.3 962.434 1177.64 979.802 1181.14 1003.67C1181.68 1007.33 1181.14 1011.46 1179.16 1012.32C1177.14 1013.15 1173.29 1010.78 1171.65 1009.77C1143.8 992.617 1041.74 902.993 1021.59 875.9C990.131 833.586 952.572 776.025 941.385 705.842L941.377 705.839C937.315 669.204 938.262 632.184 944.188 595.803C946.657 574.584 949.213 552.648 949.776 530.963C952.166 439.564 920.184 353.095 880.576 274.684C899.887 273.663 931.145 274.692 953.624 288.624C937.76 305.612 942.965 332.976 953.114 352.493L953.124 352.487C959.229 363.397 966.337 373.712 974.354 383.302C981.359 391.751 987.699 400.737 993.317 410.175C1006.87 437.58 1011.89 468.425 1007.73 498.724C1006.21 515.885 1003.12 533.242 1000.13 550.037C997.729 563.537 995.247 577.496 993.563 591.404L993.565 591.396C986.665 656.548 995.68 722.403 1019.84 783.315C1044 844.214 1082.59 898.339 1132.28 941.033L1132.28 941.044ZM1214.09 514.239L1214.09 514.247C1174.29 510.571 1134.21 510.743 1094.44 514.761L1092.44 515.011L1091.23 516.621C1070.52 545.438 1052.7 576.211 1038.02 608.509C1036.28 612.044 1034.53 615.577 1032.78 619.127L1003.01 679.294L1003.01 679.286C999.588 650.481 999.598 621.373 1003.04 592.563C1004.7 578.925 1007.15 565.098 1009.53 551.723C1012.55 534.73 1015.67 517.163 1017.23 499.585C1021.58 467.383 1016.15 434.619 1001.65 405.547C995.788 395.67 989.178 386.264 981.85 377.424C974.196 368.305 967.414 358.495 961.578 348.11C952.314 330.301 947.379 305.091 963.672 292.243C982.934 284.518 1002.32 301.369 1013.14 318.28C1019.24 328.508 1024.37 339.287 1028.46 350.47C1032.47 361.222 1037.32 371.648 1042.97 381.643C1060.94 408.713 1086.63 429.751 1116.72 442.036C1132.74 449.451 1149.52 455.502 1165.76 461.355C1178.53 465.96 1191.75 470.718 1204.39 476.089C1230.53 487.235 1255.29 501.384 1278.17 518.245L1214.09 514.239ZM1438.66 629.782C1451.4 659.133 1480.96 795.903 1482 830.25C1482.06 832.183 1482.2 836.698 1480.46 838.03C1478.76 839.344 1474.89 837.735 1471.98 835.442C1453.04 820.511 1448.12 794.226 1443.36 768.795C1442.93 766.466 1442.49 764.162 1442.06 761.868L1442.05 761.866C1429.82 697.501 1402.13 637.071 1361.38 585.761C1320.64 534.451 1268.04 493.804 1208.12 467.311C1195.23 461.839 1181.9 457.032 1169 452.384C1152.95 446.6 1136.36 440.619 1120.72 433.384L1120.72 433.376C1092.39 421.88 1068.15 402.155 1051.15 376.738C1045.77 367.173 1041.14 357.198 1037.31 346.912C1033 335.173 1027.6 323.868 1021.19 313.138C1008.71 293.634 985.965 274.552 961.985 282.777C936.949 265.304 901.789 263.617 876.333 265.401L876.409 266.519C863.49 241.452 849.892 217.231 836.482 193.968L834.589 190.682L834.587 190.691C817.818 164.412 804.608 136.035 795.28 106.289C787.203 77.7398 790.346 47.1774 804.073 20.8689L859.005 107.831C865.22 120.121 875.396 129.948 887.898 135.727C903.742 139.627 920.095 141.101 936.384 140.11C939.609 140.074 942.819 140.06 946.025 140.062C1002.08 236.08 1071.05 341.613 1177.54 399.215C1196.62 409.538 1216.92 418.261 1236.53 426.697L1236.54 426.7C1271.03 439.701 1303.6 457.329 1333.33 479.114C1387.41 522.849 1415.91 577.371 1438.65 629.781L1438.66 629.782Z" fill="#EFE8E0" fill-opacity="0.3"/>
<path d="M898.896 175.804C890.343 180.751 885.615 190.363 886.911 200.162C888.206 209.96 895.283 218.011 904.832 220.561C914.381 223.111 924.529 219.661 930.538 211.812C936.548 203.964 937.24 193.275 932.292 184.722C925.52 173.051 910.587 169.063 898.896 175.804ZM918.591 209.851C913.377 212.867 906.86 212.442 902.079 208.778C897.298 205.114 895.186 198.93 896.741 193.107C898.294 187.292 903.21 182.976 909.181 182.183C915.15 181.399 921.011 184.28 924.028 189.494C928.136 196.621 925.706 205.722 918.591 209.851Z" fill="#EFE8E0" fill-opacity="0.3"/>
</g>
<g clip-path="url(#clip1_111_5)">
<path d="M696.105 962.586L677.246 961.488L677.241 961.482L677.235 961.488L517.738 952.181L517.586 952.003L517.402 952.161L103.523 928.03L16.7444 955.673C11.4452 957.365 7.70728 962.097 7.2793 967.638C6.86319 973.18 9.84166 978.423 14.8235 980.898L96.4157 1021.36L687.387 1076.93L685.49 1101.83L1116.62 1111.32C1137.41 1111.63 1157.33 1103.05 1171.38 1087.73C1179.08 1079.36 1183.73 1068.64 1184.59 1057.29C1185.46 1045.95 1182.48 1034.65 1176.14 1025.21C1164.58 1007.94 1146.18 996.444 1125.59 993.6L697.989 937.696L696.105 962.586ZM695.393 971.935L694.645 981.756L685.731 971.371L695.393 971.935ZM677.067 970.866L693.98 990.567L693.475 997.201L675.05 1013.02L653.152 987.511L672.822 970.624L677.067 970.866ZM124.123 975.489L145.774 956.902L164.361 978.553L142.71 997.14L124.123 975.489ZM115.306 974.818L103.257 985.161L104.962 962.769L115.306 974.818ZM198.675 957.326L220.572 982.833L195.071 1004.73L173.173 979.218L198.675 957.326ZM254.895 961.607L276.793 987.115L251.285 1009.01L229.387 983.505L254.895 961.607ZM311.115 965.888L333.013 991.396L307.505 1013.29L285.603 987.781L311.115 965.888ZM367.326 970.168L389.224 995.676L363.716 1017.57L341.818 992.066L367.326 970.168ZM423.542 974.445L445.44 999.952L419.933 1021.85L398.035 996.343L423.542 974.445ZM479.763 978.726L501.661 1004.23L476.148 1026.14L454.25 1000.63L479.763 978.726ZM535.978 983.011L557.876 1008.52L532.363 1030.41L510.465 1004.9L535.978 983.011ZM592.189 987.292L614.087 1012.8L588.579 1034.7L566.681 1009.19L592.189 987.292ZM648.405 991.568L670.303 1017.08L644.795 1038.97L622.898 1013.47L648.405 991.568ZM692.8 1006L690.858 1031.43L679.113 1017.75L692.8 1006ZM636.852 968.51L663.831 970.084L649.07 982.756L636.852 968.51ZM628.176 968.004L644.332 986.823L618.824 1008.72L596.926 983.213L615.504 967.264L628.176 968.004ZM606.522 966.747L592.86 978.475L581.535 965.284L606.522 966.747ZM572.865 964.783L588.116 982.548L562.608 1004.45L540.71 978.938L558.196 963.927L572.865 964.783ZM549.208 963.403L536.644 974.2L526.224 962.062L549.208 963.403ZM517.55 961.556L531.895 978.266L506.399 1000.16L484.501 974.657L500.894 960.584L517.55 961.556ZM491.895 960.059L480.43 969.913L470.921 958.836L491.895 960.059ZM462.233 958.329L475.686 973.986L450.178 995.884L428.28 970.376L443.58 957.241L462.233 958.329ZM434.581 956.716L424.214 965.638L415.61 955.616L434.581 956.716ZM406.917 955.102L419.452 969.704L393.968 991.603L372.07 966.095L386.278 953.898L406.917 955.102ZM377.29 953.374L367.998 961.351L360.299 952.383L377.29 953.374ZM351.624 951.877L363.254 965.424L337.746 987.322L315.848 961.814L328.964 950.555L351.624 951.877ZM319.987 950.032L311.781 957.076L304.987 949.162L319.987 950.032ZM296.318 948.651L307.043 961.144L281.535 983.042L259.637 957.534L271.66 947.212L296.318 948.651ZM262.673 946.687L255.566 952.789L249.677 945.929L262.673 946.687ZM241.002 945.423L250.822 956.862L225.314 978.76L203.416 953.252L214.347 943.868L241.002 945.423ZM205.36 943.344L199.345 948.507L194.362 942.702L205.36 943.344ZM185.686 942.196L194.601 952.581L169.093 974.478L150.506 952.827L164.333 940.957L185.686 942.196ZM155.351 940.426L146.433 948.081L139.045 939.475L155.351 940.426ZM130.381 938.97L141.695 952.149L120.044 970.736L105.634 953.95L106.878 937.601L130.381 938.97ZM18.9844 972.479C17.4285 971.708 16.4966 970.07 16.6287 968.335C16.7609 966.6 17.93 965.121 19.5848 964.594L100.517 938.816L95.0785 1010.23L18.9844 972.479ZM101.183 1012.38L102.591 993.97L119.384 979.554L137.971 1001.21L122.613 1014.39L101.183 1012.38ZM131.255 1015.2L142.04 1005.94L151.631 1017.12L131.255 1015.2ZM160.589 1017.96L146.778 1001.88L168.429 983.29L190.327 1008.8L177.77 1019.58L160.589 1017.96ZM186.416 1020.39L194.4 1013.54L201.499 1021.81L186.416 1020.39ZM209.526 1022.56L210.022 1022.14L199.144 1009.47L224.652 987.57L246.55 1013.08L232.933 1024.77L209.526 1022.56ZM241.583 1025.58L250.621 1017.82L258.658 1027.18L241.583 1025.58ZM267.617 1028.03L255.36 1013.75L280.862 991.849L302.76 1017.36L288.095 1029.95L267.617 1028.03ZM296.739 1030.76L306.831 1022.1L315.806 1032.56L296.739 1030.76ZM324.764 1033.4L311.576 1018.03L337.084 996.13L358.981 1021.64L343.255 1035.14L324.764 1033.4ZM351.894 1035.95L363.041 1026.38L372.959 1037.93L351.894 1035.95ZM381.918 1038.77L367.785 1022.31L393.293 1000.41L415.191 1025.92L398.411 1040.32L381.918 1038.77ZM407.056 1041.13L419.257 1030.66L430.113 1043.3L407.056 1041.13ZM439.073 1044.14L424.008 1026.59L449.515 1004.69L471.413 1030.2L453.578 1045.51L439.073 1044.14ZM462.219 1046.31L475.474 1034.93L487.268 1048.67L462.219 1046.31ZM494.983 1049.39L495.644 1048.83L480.218 1030.86L505.726 1008.96L527.624 1034.47L508.734 1050.7L494.983 1049.39ZM517.385 1051.51L531.695 1039.22L544.427 1054.05L517.385 1051.51ZM553.387 1054.89L536.44 1035.15L561.948 1013.25L583.846 1038.76L563.902 1055.88L553.387 1054.89ZM572.542 1056.69L587.906 1043.5L601.575 1059.43L572.542 1056.69ZM610.539 1060.27L592.65 1039.43L618.158 1017.53L640.056 1043.04L619.058 1061.07L610.539 1060.27ZM627.708 1061.88L644.127 1047.79L658.735 1064.8L627.708 1061.88ZM667.693 1065.64L648.872 1043.71L674.38 1021.81L690.197 1040.24L689.692 1046.87L667.806 1065.65L667.693 1065.64ZM676.457 1066.46L689.014 1055.68L688.11 1067.56L676.457 1066.46ZM1124.38 1002.87C1142.32 1005.37 1158.34 1015.4 1168.4 1030.45C1173.56 1038.14 1175.99 1047.33 1175.28 1056.56C1174.58 1065.79 1170.79 1074.52 1164.53 1081.33C1152.3 1094.68 1134.95 1102.17 1116.84 1101.92L695.616 1092.66L706.613 948.249L1124.38 1002.87Z" fill="#EFE8E0" fill-opacity="0.3"/>
</g>
<g clip-path="url(#clip2_111_5)">
<path d="M915.512 869.608C919.274 864.213 919.412 857.091 915.872 851.551C912.333 846.011 905.813 843.148 899.341 844.302C892.876 845.454 887.737 850.394 886.327 856.816C884.909 863.239 887.504 869.875 892.896 873.638C900.258 878.764 910.37 876.962 915.512 869.608ZM895.2 855.423C897.172 852.596 900.653 851.236 904.023 851.98C907.383 852.718 909.977 855.416 910.581 858.814C911.185 862.204 909.682 865.632 906.784 867.492C903.877 869.347 900.14 869.274 897.315 867.301C893.456 864.601 892.51 859.29 895.2 855.423Z" fill="#EFE8E0" fill-opacity="0.3"/>
<path d="M594.727 777.116C608.115 757.877 613.327 734.105 609.219 711.028C605.11 687.942 592.015 667.432 572.811 654.003L506.738 607.884C480.843 589.827 447.29 586.972 418.713 600.374C390.135 613.774 370.872 641.401 368.168 672.862C365.464 704.323 379.727 734.841 405.603 752.925L471.677 799.045C490.913 812.439 514.664 817.647 537.735 813.536C560.8 809.426 581.301 796.332 594.725 777.118L594.727 777.116ZM410.016 746.589L410.024 746.587C392.432 734.355 380.425 715.633 376.648 694.541C372.878 673.448 377.645 651.721 389.9 634.145C402.153 616.563 420.888 604.594 441.977 600.85C463.066 597.116 484.782 601.924 502.32 614.213L568.393 660.332L568.394 660.34C592.024 676.834 605.061 704.695 602.599 733.417C600.137 762.138 582.545 787.368 556.454 799.595C530.362 811.823 499.727 809.201 476.097 792.707L410.016 746.589Z" fill="#EFE8E0" fill-opacity="0.3"/>
<path d="M722.811 593.45C736.199 574.211 741.404 550.44 737.296 527.363C733.186 504.278 720.101 483.774 700.896 470.337L634.823 424.217C608.921 406.17 575.375 403.306 546.797 416.707C518.22 430.108 498.948 457.736 496.244 489.197C493.541 520.658 507.811 551.175 533.68 569.26L599.753 615.38L599.761 615.379C618.989 628.774 642.749 633.989 665.815 629.879C688.888 625.767 709.38 612.667 722.809 593.452L722.811 593.45ZM538.101 562.923C514.551 546.391 501.577 518.566 504.06 489.887C506.546 461.218 524.099 436.033 550.143 423.798C576.187 411.572 606.766 414.141 630.406 430.554L696.479 476.674C714.026 488.922 725.993 507.636 729.744 528.71C733.496 549.785 728.732 571.487 716.489 589.037C704.247 606.593 685.543 618.566 664.479 622.319C643.416 626.072 621.724 621.299 604.182 609.041L538.101 562.923Z" fill="#EFE8E0" fill-opacity="0.3"/>
<path d="M616.873 808.767L632.406 786.482L632.686 786.07C639.917 775.365 651.097 767.949 663.772 765.454C676.441 762.961 689.596 765.585 700.338 772.749L964.294 948.555C984.697 962.102 1006.14 974.009 1028.43 984.163L1202.31 1063.38L1065.02 929.67L1065.02 929.663C1048.05 913.144 1029.85 897.956 1010.56 884.218L751.666 699.904L751.674 699.903C740.657 692.032 733.331 680.006 731.4 666.602C729.467 653.623 732.993 640.418 741.133 630.139C742.762 628.08 744.372 625.915 745.924 623.689L761.108 601.914L761.107 601.906C776.765 579.402 782.857 551.607 778.05 524.605C773.245 497.611 757.936 473.622 735.474 457.91L632.46 386.006C609.969 370.346 582.179 364.246 555.199 369.053C528.22 373.861 504.244 389.185 488.539 411.651L473.356 433.427C460.496 451.927 454.004 474.119 454.878 496.631C455.761 519.153 463.946 540.771 478.206 558.212C456.923 550.842 433.817 550.613 412.396 557.567C390.968 564.521 372.391 578.27 359.488 596.738L344.305 618.513C328.646 641.018 322.556 668.82 327.361 695.814C332.167 722.808 347.475 746.797 369.937 762.509L472.946 834.415C495.445 850.073 523.226 856.175 550.214 851.366C577.194 846.558 601.16 831.235 616.873 808.767ZM968.544 942.118L935.136 919.867C951.289 914.702 968.442 909.727 984.548 917.626C992.552 921.898 1000.2 926.801 1007.42 932.29C1013.11 936.33 1018.85 940.314 1024.56 944.344C1055.3 966.064 1085.89 988.015 1116.67 1009.69C1125.09 1015.62 1133.52 1021.52 1141.97 1027.4L1031.61 977.131C1009.7 967.146 988.616 955.441 968.544 942.118ZM479.687 437.838L494.87 416.063C509.405 395.276 531.59 381.096 556.55 376.648C581.52 372.199 607.225 377.845 628.038 392.333L731.052 464.238C751.836 478.778 766.001 500.976 770.446 525.95C774.893 550.933 769.258 576.65 754.769 597.475L739.586 619.25C738.121 621.351 736.608 623.397 735.074 625.329L735.076 625.336C725.614 637.28 721.515 652.609 723.75 667.679C725.989 683.174 734.453 697.087 747.189 706.185L886.539 805.401C876.587 808.857 866.172 810.775 855.648 811.094C841.658 810.223 828.29 804.988 817.419 796.141C791.463 777.831 765.732 759.202 739.825 740.82C688.361 704.29 636.793 667.888 585.57 631.009C557.34 610.688 529.24 590.19 501.276 569.516C481.266 554.688 467.828 532.645 463.798 508.06C459.768 483.476 465.466 458.289 479.683 437.842L479.687 437.838ZM374.351 756.158C353.567 741.617 339.402 719.419 334.957 694.446C330.509 669.463 336.145 643.746 350.633 622.921L365.817 601.145C380.35 580.351 402.529 566.18 427.497 561.731C452.459 557.283 478.171 562.919 498.985 577.415C549.505 614.814 600.593 651.434 651.827 687.857C704.57 725.347 757.44 762.655 810.031 800.353C822.225 810.6 837.191 816.996 853.018 818.742C867.153 818.574 881.148 815.946 894.375 810.979L1006.08 890.502C1025.03 904.008 1042.93 918.944 1059.62 935.182L1151.34 1024.51C1125.71 1006.73 1100.27 988.662 1074.84 970.579C1060.09 960.089 1045.33 949.6 1030.56 939.119L1030.57 939.117C1017.55 929.057 1003.88 919.866 989.652 911.618C980.519 906.831 970.175 904.862 959.921 905.951C948.677 907.577 937.639 910.408 927.007 914.402L926.985 914.413L704.619 766.305C692.134 758.178 676.979 755.227 662.368 758.098C647.754 760.961 634.827 769.412 626.336 781.654L626.023 782.103L610.528 804.334L610.536 804.333C596.001 825.12 573.816 839.3 548.856 843.748C523.886 848.197 498.173 842.553 477.36 828.064L374.351 756.158Z" fill="#EFE8E0" fill-opacity="0.3"/>
</g>
<defs>
<clipPath id="clip0_111_5">
<rect width="887.333" height="890.566" fill="white" transform="translate(796.778) rotate(14.9522)"/>
</clipPath>
<clipPath id="clip1_111_5">
<rect width="855.021" height="856.628" fill="white" transform="translate(0.0654297 967.087) rotate(-40.6454)"/>
</clipPath>
<clipPath id="clip2_111_5">
<rect width="797.492" height="797.881" fill="white" transform="matrix(-0.984492 0.175431 -0.175254 -0.984523 1202.34 1063.53)"/>
</clipPath>
</defs>
</svg>
